<mxfile host="65bd71144e" pages="2">
    <diagram id="byCKD2jUo4fTi7w4MlXq" name="Page-1">
        <mxGraphModel dx="1074" dy="767" grid="1" gridSize="10" guides="1" tooltips="1" connect="1" arrows="1" fold="1" page="1" pageScale="1" pageWidth="1200" pageHeight="900" math="0" shadow="0">
            <root>
                <mxCell id="0"/>
                <mxCell id="1" parent="0"/>
                <mxCell id="r8ihxzE9rvK1Nhk9idx7-1" value="Libros" style="rounded=0;whiteSpace=wrap;html=1;" parent="1" vertex="1">
                    <mxGeometry x="240" y="270" width="120" height="60" as="geometry"/>
                </mxCell>
                <mxCell id="r8ihxzE9rvK1Nhk9idx7-3" value="&lt;u&gt;&lt;b&gt;ISBN&lt;/b&gt;&lt;/u&gt;" style="ellipse;whiteSpace=wrap;html=1;" parent="1" vertex="1">
                    <mxGeometry x="90" y="275" width="90" height="50" as="geometry"/>
                </mxCell>
                <mxCell id="r8ihxzE9rvK1Nhk9idx7-5" value="num_paginas" style="ellipse;whiteSpace=wrap;html=1;" parent="1" vertex="1">
                    <mxGeometry x="140" y="190" width="80" height="50" as="geometry"/>
                </mxCell>
                <mxCell id="r8ihxzE9rvK1Nhk9idx7-6" value="" style="endArrow=none;html=1;rounded=0;entryX=0.75;entryY=0;entryDx=0;entryDy=0;entryPerimeter=0;exitX=0;exitY=1;exitDx=0;exitDy=0;" parent="1" source="r8ihxzE9rvK1Nhk9idx7-1" target="r8ihxzE9rvK1Nhk9idx7-68" edge="1">
                    <mxGeometry width="50" height="50" relative="1" as="geometry">
                        <mxPoint x="250" y="340" as="sourcePoint"/>
                        <mxPoint x="460" y="360" as="targetPoint"/>
                    </mxGeometry>
                </mxCell>
                <mxCell id="r8ihxzE9rvK1Nhk9idx7-7" value="" style="endArrow=none;html=1;rounded=0;exitX=0.775;exitY=0.94;exitDx=0;exitDy=0;exitPerimeter=0;entryX=0;entryY=0;entryDx=0;entryDy=0;" parent="1" source="r8ihxzE9rvK1Nhk9idx7-5" target="r8ihxzE9rvK1Nhk9idx7-1" edge="1">
                    <mxGeometry width="50" height="50" relative="1" as="geometry">
                        <mxPoint x="410" y="410" as="sourcePoint"/>
                        <mxPoint x="460" y="360" as="targetPoint"/>
                    </mxGeometry>
                </mxCell>
                <mxCell id="r8ihxzE9rvK1Nhk9idx7-8" value="" style="endArrow=none;html=1;rounded=0;exitX=1;exitY=0.5;exitDx=0;exitDy=0;entryX=0;entryY=0.5;entryDx=0;entryDy=0;" parent="1" source="r8ihxzE9rvK1Nhk9idx7-3" target="r8ihxzE9rvK1Nhk9idx7-1" edge="1">
                    <mxGeometry width="50" height="50" relative="1" as="geometry">
                        <mxPoint x="410" y="410" as="sourcePoint"/>
                        <mxPoint x="460" y="360" as="targetPoint"/>
                    </mxGeometry>
                </mxCell>
                <mxCell id="r8ihxzE9rvK1Nhk9idx7-9" value="Autores" style="rounded=0;whiteSpace=wrap;html=1;" parent="1" vertex="1">
                    <mxGeometry x="560" y="120" width="120" height="60" as="geometry"/>
                </mxCell>
                <mxCell id="r8ihxzE9rvK1Nhk9idx7-10" value="&lt;b&gt;&lt;u&gt;codigo&lt;/u&gt;&lt;/b&gt;" style="ellipse;whiteSpace=wrap;html=1;" parent="1" vertex="1">
                    <mxGeometry x="450" y="70" width="80" height="50" as="geometry"/>
                </mxCell>
                <mxCell id="r8ihxzE9rvK1Nhk9idx7-11" value="nombre" style="ellipse;whiteSpace=wrap;html=1;" parent="1" vertex="1">
                    <mxGeometry x="530" y="10" width="80" height="50" as="geometry"/>
                </mxCell>
                <mxCell id="r8ihxzE9rvK1Nhk9idx7-12" value="apellido" style="ellipse;whiteSpace=wrap;html=1;" parent="1" vertex="1">
                    <mxGeometry x="640" y="10" width="80" height="50" as="geometry"/>
                </mxCell>
                <mxCell id="r8ihxzE9rvK1Nhk9idx7-13" value="fecha_nacimiento" style="ellipse;whiteSpace=wrap;html=1;" parent="1" vertex="1">
                    <mxGeometry x="730" y="60" width="100" height="50" as="geometry"/>
                </mxCell>
                <mxCell id="r8ihxzE9rvK1Nhk9idx7-14" value="" style="endArrow=none;html=1;rounded=0;entryX=1;entryY=1;entryDx=0;entryDy=0;exitX=0;exitY=0.25;exitDx=0;exitDy=0;" parent="1" source="r8ihxzE9rvK1Nhk9idx7-9" target="r8ihxzE9rvK1Nhk9idx7-10" edge="1">
                    <mxGeometry width="50" height="50" relative="1" as="geometry">
                        <mxPoint x="480" y="350" as="sourcePoint"/>
                        <mxPoint x="530" y="300" as="targetPoint"/>
                    </mxGeometry>
                </mxCell>
                <mxCell id="r8ihxzE9rvK1Nhk9idx7-15" value="" style="endArrow=none;html=1;rounded=0;" parent="1" source="r8ihxzE9rvK1Nhk9idx7-9" target="r8ihxzE9rvK1Nhk9idx7-11" edge="1">
                    <mxGeometry width="50" height="50" relative="1" as="geometry">
                        <mxPoint x="480" y="350" as="sourcePoint"/>
                        <mxPoint x="580" y="80" as="targetPoint"/>
                    </mxGeometry>
                </mxCell>
                <mxCell id="r8ihxzE9rvK1Nhk9idx7-16" value="" style="endArrow=none;html=1;rounded=0;exitX=0.75;exitY=0;exitDx=0;exitDy=0;exitPerimeter=0;" parent="1" source="r8ihxzE9rvK1Nhk9idx7-9" target="r8ihxzE9rvK1Nhk9idx7-12" edge="1">
                    <mxGeometry width="50" height="50" relative="1" as="geometry">
                        <mxPoint x="480" y="350" as="sourcePoint"/>
                        <mxPoint x="680" y="90" as="targetPoint"/>
                    </mxGeometry>
                </mxCell>
                <mxCell id="r8ihxzE9rvK1Nhk9idx7-17" value="" style="endArrow=none;html=1;rounded=0;exitX=1;exitY=0.25;exitDx=0;exitDy=0;entryX=0.5;entryY=1;entryDx=0;entryDy=0;" parent="1" source="r8ihxzE9rvK1Nhk9idx7-9" target="r8ihxzE9rvK1Nhk9idx7-13" edge="1">
                    <mxGeometry width="50" height="50" relative="1" as="geometry">
                        <mxPoint x="710" y="160" as="sourcePoint"/>
                        <mxPoint x="780" y="160" as="targetPoint"/>
                    </mxGeometry>
                </mxCell>
                <mxCell id="r8ihxzE9rvK1Nhk9idx7-19" value="fecha_fallecimiento" style="ellipse;whiteSpace=wrap;html=1;" parent="1" vertex="1">
                    <mxGeometry x="790" y="120" width="120" height="50" as="geometry"/>
                </mxCell>
                <mxCell id="r8ihxzE9rvK1Nhk9idx7-20" value="" style="endArrow=none;html=1;rounded=0;entryX=0;entryY=0.5;entryDx=0;entryDy=0;exitX=1;exitY=0.5;exitDx=0;exitDy=0;" parent="1" source="r8ihxzE9rvK1Nhk9idx7-9" target="r8ihxzE9rvK1Nhk9idx7-19" edge="1">
                    <mxGeometry width="50" height="50" relative="1" as="geometry">
                        <mxPoint x="480" y="350" as="sourcePoint"/>
                        <mxPoint x="530" y="300" as="targetPoint"/>
                    </mxGeometry>
                </mxCell>
                <mxCell id="r8ihxzE9rvK1Nhk9idx7-22" value="" style="endArrow=none;html=1;rounded=0;exitX=0.5;exitY=0;exitDx=0;exitDy=0;" parent="1" source="r8ihxzE9rvK1Nhk9idx7-1" target="r8ihxzE9rvK1Nhk9idx7-38" edge="1">
                    <mxGeometry width="50" height="50" relative="1" as="geometry">
                        <mxPoint x="460" y="340" as="sourcePoint"/>
                        <mxPoint x="420" y="230" as="targetPoint"/>
                    </mxGeometry>
                </mxCell>
                <mxCell id="r8ihxzE9rvK1Nhk9idx7-24" value="Socios" style="rounded=0;whiteSpace=wrap;html=1;" parent="1" vertex="1">
                    <mxGeometry x="540" y="377.5" width="120" height="60" as="geometry"/>
                </mxCell>
                <mxCell id="r8ihxzE9rvK1Nhk9idx7-25" value="nombre" style="ellipse;whiteSpace=wrap;html=1;" parent="1" vertex="1">
                    <mxGeometry x="550" y="247.5" width="80" height="50" as="geometry"/>
                </mxCell>
                <mxCell id="r8ihxzE9rvK1Nhk9idx7-26" value="&lt;u&gt;&lt;b&gt;rut&lt;/b&gt;&lt;/u&gt;" style="ellipse;whiteSpace=wrap;html=1;" parent="1" vertex="1">
                    <mxGeometry x="440" y="277.5" width="80" height="50" as="geometry"/>
                </mxCell>
                <mxCell id="r8ihxzE9rvK1Nhk9idx7-27" value="apellido" style="ellipse;whiteSpace=wrap;html=1;" parent="1" vertex="1">
                    <mxGeometry x="730" y="247.5" width="80" height="50" as="geometry"/>
                </mxCell>
                <mxCell id="r8ihxzE9rvK1Nhk9idx7-29" value="telefono" style="ellipse;whiteSpace=wrap;html=1;" parent="1" vertex="1">
                    <mxGeometry x="780" y="325" width="80" height="50" as="geometry"/>
                </mxCell>
                <mxCell id="r8ihxzE9rvK1Nhk9idx7-30" value="" style="endArrow=none;html=1;rounded=0;entryX=0.588;entryY=0.98;entryDx=0;entryDy=0;entryPerimeter=0;exitX=-0.017;exitY=0.117;exitDx=0;exitDy=0;exitPerimeter=0;" parent="1" source="r8ihxzE9rvK1Nhk9idx7-24" target="r8ihxzE9rvK1Nhk9idx7-26" edge="1">
                    <mxGeometry width="50" height="50" relative="1" as="geometry">
                        <mxPoint x="210" y="407.5" as="sourcePoint"/>
                        <mxPoint x="260" y="357.5" as="targetPoint"/>
                    </mxGeometry>
                </mxCell>
                <mxCell id="r8ihxzE9rvK1Nhk9idx7-31" value="" style="endArrow=none;html=1;rounded=0;entryX=0.5;entryY=1;entryDx=0;entryDy=0;exitX=0.375;exitY=-0.067;exitDx=0;exitDy=0;exitPerimeter=0;" parent="1" source="r8ihxzE9rvK1Nhk9idx7-24" target="r8ihxzE9rvK1Nhk9idx7-25" edge="1">
                    <mxGeometry width="50" height="50" relative="1" as="geometry">
                        <mxPoint x="210" y="407.5" as="sourcePoint"/>
                        <mxPoint x="260" y="357.5" as="targetPoint"/>
                    </mxGeometry>
                </mxCell>
                <mxCell id="r8ihxzE9rvK1Nhk9idx7-32" value="" style="endArrow=none;html=1;rounded=0;entryX=0.375;entryY=1;entryDx=0;entryDy=0;entryPerimeter=0;" parent="1" source="r8ihxzE9rvK1Nhk9idx7-24" target="r8ihxzE9rvK1Nhk9idx7-27" edge="1">
                    <mxGeometry width="50" height="50" relative="1" as="geometry">
                        <mxPoint x="210" y="407.5" as="sourcePoint"/>
                        <mxPoint x="260" y="357.5" as="targetPoint"/>
                    </mxGeometry>
                </mxCell>
                <mxCell id="r8ihxzE9rvK1Nhk9idx7-34" value="" style="endArrow=none;html=1;rounded=0;exitX=1;exitY=0.5;exitDx=0;exitDy=0;entryX=0;entryY=1;entryDx=0;entryDy=0;" parent="1" source="r8ihxzE9rvK1Nhk9idx7-24" target="r8ihxzE9rvK1Nhk9idx7-29" edge="1">
                    <mxGeometry width="50" height="50" relative="1" as="geometry">
                        <mxPoint x="210" y="407.5" as="sourcePoint"/>
                        <mxPoint x="782.1719976704303" y="380.6260153152407" as="targetPoint"/>
                    </mxGeometry>
                </mxCell>
                <mxCell id="r8ihxzE9rvK1Nhk9idx7-38" value="tiene" style="rhombus;whiteSpace=wrap;html=1;" parent="1" vertex="1">
                    <mxGeometry x="330" y="160" width="80" height="80" as="geometry"/>
                </mxCell>
                <mxCell id="r8ihxzE9rvK1Nhk9idx7-39" value="" style="endArrow=none;html=1;rounded=0;entryX=0;entryY=0.75;entryDx=0;entryDy=0;exitX=1;exitY=0;exitDx=0;exitDy=0;" parent="1" source="r8ihxzE9rvK1Nhk9idx7-38" target="r8ihxzE9rvK1Nhk9idx7-9" edge="1">
                    <mxGeometry width="50" height="50" relative="1" as="geometry">
                        <mxPoint x="570" y="380" as="sourcePoint"/>
                        <mxPoint x="620" y="330" as="targetPoint"/>
                    </mxGeometry>
                </mxCell>
                <mxCell id="r8ihxzE9rvK1Nhk9idx7-40" value="n" style="text;html=1;align=center;verticalAlign=middle;resizable=0;points=[];autosize=1;strokeColor=none;fillColor=none;" parent="1" vertex="1">
                    <mxGeometry x="280" y="250" width="20" height="20" as="geometry"/>
                </mxCell>
                <mxCell id="r8ihxzE9rvK1Nhk9idx7-41" value="n" style="text;html=1;align=center;verticalAlign=middle;resizable=0;points=[];autosize=1;strokeColor=none;fillColor=none;" parent="1" vertex="1">
                    <mxGeometry x="540" y="150" width="20" height="20" as="geometry"/>
                </mxCell>
                <mxCell id="r8ihxzE9rvK1Nhk9idx7-42" value="direcciones" style="rounded=0;whiteSpace=wrap;html=1;" parent="1" vertex="1">
                    <mxGeometry x="660" y="629" width="120" height="60" as="geometry"/>
                </mxCell>
                <mxCell id="r8ihxzE9rvK1Nhk9idx7-43" value="vive" style="rhombus;whiteSpace=wrap;html=1;" parent="1" vertex="1">
                    <mxGeometry x="620" y="500" width="80" height="80" as="geometry"/>
                </mxCell>
                <mxCell id="r8ihxzE9rvK1Nhk9idx7-44" value="" style="endArrow=none;html=1;rounded=0;exitX=0.5;exitY=1;exitDx=0;exitDy=0;entryX=0;entryY=0;entryDx=0;entryDy=0;" parent="1" source="r8ihxzE9rvK1Nhk9idx7-24" target="r8ihxzE9rvK1Nhk9idx7-43" edge="1">
                    <mxGeometry width="50" height="50" relative="1" as="geometry">
                        <mxPoint x="340" y="337.5" as="sourcePoint"/>
                        <mxPoint x="650" y="500" as="targetPoint"/>
                    </mxGeometry>
                </mxCell>
                <mxCell id="r8ihxzE9rvK1Nhk9idx7-45" value="" style="endArrow=none;html=1;rounded=0;entryX=0.5;entryY=0;entryDx=0;entryDy=0;" parent="1" source="r8ihxzE9rvK1Nhk9idx7-43" target="r8ihxzE9rvK1Nhk9idx7-42" edge="1">
                    <mxGeometry width="50" height="50" relative="1" as="geometry">
                        <mxPoint x="500" y="320" as="sourcePoint"/>
                        <mxPoint x="720" y="620" as="targetPoint"/>
                    </mxGeometry>
                </mxCell>
                <mxCell id="r8ihxzE9rvK1Nhk9idx7-47" value="&lt;b&gt;&lt;u&gt;id&lt;/u&gt;&lt;/b&gt;" style="ellipse;whiteSpace=wrap;html=1;" parent="1" vertex="1">
                    <mxGeometry x="810" y="540" width="80" height="50" as="geometry"/>
                </mxCell>
                <mxCell id="r8ihxzE9rvK1Nhk9idx7-49" value="Calle" style="ellipse;whiteSpace=wrap;html=1;" parent="1" vertex="1">
                    <mxGeometry x="860" y="599" width="80" height="50" as="geometry"/>
                </mxCell>
                <mxCell id="r8ihxzE9rvK1Nhk9idx7-50" value="numero" style="ellipse;whiteSpace=wrap;html=1;" parent="1" vertex="1">
                    <mxGeometry x="850" y="689" width="80" height="50" as="geometry"/>
                </mxCell>
                <mxCell id="r8ihxzE9rvK1Nhk9idx7-51" value="pertenece" style="rhombus;whiteSpace=wrap;html=1;" parent="1" vertex="1">
                    <mxGeometry x="680" y="769" width="80" height="80" as="geometry"/>
                </mxCell>
                <mxCell id="r8ihxzE9rvK1Nhk9idx7-52" value="" style="endArrow=none;html=1;rounded=0;entryX=0.5;entryY=0;entryDx=0;entryDy=0;exitX=0.5;exitY=1;exitDx=0;exitDy=0;" parent="1" source="r8ihxzE9rvK1Nhk9idx7-42" target="r8ihxzE9rvK1Nhk9idx7-51" edge="1">
                    <mxGeometry width="50" height="50" relative="1" as="geometry">
                        <mxPoint x="310" y="589" as="sourcePoint"/>
                        <mxPoint x="360" y="539" as="targetPoint"/>
                    </mxGeometry>
                </mxCell>
                <mxCell id="r8ihxzE9rvK1Nhk9idx7-53" value="comunas" style="rounded=0;whiteSpace=wrap;html=1;" parent="1" vertex="1">
                    <mxGeometry x="870" y="779" width="120" height="60" as="geometry"/>
                </mxCell>
                <mxCell id="r8ihxzE9rvK1Nhk9idx7-54" value="" style="endArrow=none;html=1;rounded=0;entryX=0;entryY=0.5;entryDx=0;entryDy=0;exitX=1;exitY=0.5;exitDx=0;exitDy=0;" parent="1" source="r8ihxzE9rvK1Nhk9idx7-51" target="r8ihxzE9rvK1Nhk9idx7-53" edge="1">
                    <mxGeometry width="50" height="50" relative="1" as="geometry">
                        <mxPoint x="770" y="799" as="sourcePoint"/>
                        <mxPoint x="360" y="689" as="targetPoint"/>
                    </mxGeometry>
                </mxCell>
                <mxCell id="r8ihxzE9rvK1Nhk9idx7-55" value="" style="endArrow=none;html=1;rounded=0;entryX=0;entryY=0.5;entryDx=0;entryDy=0;exitX=1;exitY=0.75;exitDx=0;exitDy=0;" parent="1" source="r8ihxzE9rvK1Nhk9idx7-42" target="r8ihxzE9rvK1Nhk9idx7-50" edge="1">
                    <mxGeometry width="50" height="50" relative="1" as="geometry">
                        <mxPoint x="310" y="739" as="sourcePoint"/>
                        <mxPoint x="360" y="689" as="targetPoint"/>
                    </mxGeometry>
                </mxCell>
                <mxCell id="r8ihxzE9rvK1Nhk9idx7-56" value="" style="endArrow=none;html=1;rounded=0;entryX=0.025;entryY=0.76;entryDx=0;entryDy=0;entryPerimeter=0;exitX=1;exitY=0.5;exitDx=0;exitDy=0;" parent="1" source="r8ihxzE9rvK1Nhk9idx7-42" target="r8ihxzE9rvK1Nhk9idx7-49" edge="1">
                    <mxGeometry width="50" height="50" relative="1" as="geometry">
                        <mxPoint x="310" y="739" as="sourcePoint"/>
                        <mxPoint x="360" y="689" as="targetPoint"/>
                    </mxGeometry>
                </mxCell>
                <mxCell id="r8ihxzE9rvK1Nhk9idx7-57" value="" style="endArrow=none;html=1;rounded=0;exitX=1;exitY=0;exitDx=0;exitDy=0;" parent="1" source="r8ihxzE9rvK1Nhk9idx7-42" target="r8ihxzE9rvK1Nhk9idx7-47" edge="1">
                    <mxGeometry width="50" height="50" relative="1" as="geometry">
                        <mxPoint x="310" y="739" as="sourcePoint"/>
                        <mxPoint x="824" y="589.9999999999998" as="targetPoint"/>
                    </mxGeometry>
                </mxCell>
                <mxCell id="r8ihxzE9rvK1Nhk9idx7-58" value="&lt;b&gt;&lt;u&gt;id&lt;/u&gt;&lt;/b&gt;" style="ellipse;whiteSpace=wrap;html=1;" parent="1" vertex="1">
                    <mxGeometry x="1010" y="680" width="80" height="50" as="geometry"/>
                </mxCell>
                <mxCell id="r8ihxzE9rvK1Nhk9idx7-59" value="nombre" style="ellipse;whiteSpace=wrap;html=1;" parent="1" vertex="1">
                    <mxGeometry x="1080" y="750" width="80" height="50" as="geometry"/>
                </mxCell>
                <mxCell id="r8ihxzE9rvK1Nhk9idx7-60" value="ciudad" style="ellipse;whiteSpace=wrap;html=1;" parent="1" vertex="1">
                    <mxGeometry x="1050" y="820" width="80" height="50" as="geometry"/>
                </mxCell>
                <mxCell id="r8ihxzE9rvK1Nhk9idx7-61" value="" style="endArrow=none;html=1;rounded=0;exitX=1;exitY=0;exitDx=0;exitDy=0;" parent="1" source="r8ihxzE9rvK1Nhk9idx7-53" target="r8ihxzE9rvK1Nhk9idx7-58" edge="1">
                    <mxGeometry width="50" height="50" relative="1" as="geometry">
                        <mxPoint x="480" y="739" as="sourcePoint"/>
                        <mxPoint x="530" y="689" as="targetPoint"/>
                    </mxGeometry>
                </mxCell>
                <mxCell id="r8ihxzE9rvK1Nhk9idx7-62" value="" style="endArrow=none;html=1;rounded=0;exitX=1;exitY=0.5;exitDx=0;exitDy=0;" parent="1" source="r8ihxzE9rvK1Nhk9idx7-53" target="r8ihxzE9rvK1Nhk9idx7-59" edge="1">
                    <mxGeometry width="50" height="50" relative="1" as="geometry">
                        <mxPoint x="480" y="739" as="sourcePoint"/>
                        <mxPoint x="530" y="689" as="targetPoint"/>
                    </mxGeometry>
                </mxCell>
                <mxCell id="r8ihxzE9rvK1Nhk9idx7-63" value="1" style="text;html=1;align=center;verticalAlign=middle;resizable=0;points=[];autosize=1;strokeColor=none;fillColor=none;" parent="1" vertex="1">
                    <mxGeometry x="730" y="689" width="20" height="20" as="geometry"/>
                </mxCell>
                <mxCell id="r8ihxzE9rvK1Nhk9idx7-64" value="1" style="text;html=1;align=center;verticalAlign=middle;resizable=0;points=[];autosize=1;strokeColor=none;fillColor=none;" parent="1" vertex="1">
                    <mxGeometry x="850" y="784" width="20" height="20" as="geometry"/>
                </mxCell>
                <mxCell id="r8ihxzE9rvK1Nhk9idx7-65" value="" style="endArrow=none;html=1;rounded=0;entryX=0.021;entryY=0.264;entryDx=0;entryDy=0;exitX=1;exitY=0.75;exitDx=0;exitDy=0;entryPerimeter=0;" parent="1" source="r8ihxzE9rvK1Nhk9idx7-53" target="r8ihxzE9rvK1Nhk9idx7-60" edge="1">
                    <mxGeometry width="50" height="50" relative="1" as="geometry">
                        <mxPoint x="480" y="739" as="sourcePoint"/>
                        <mxPoint x="530" y="689" as="targetPoint"/>
                    </mxGeometry>
                </mxCell>
                <mxCell id="r8ihxzE9rvK1Nhk9idx7-66" value="n" style="text;html=1;align=center;verticalAlign=middle;resizable=0;points=[];autosize=1;strokeColor=none;fillColor=none;" parent="1" vertex="1">
                    <mxGeometry x="620" y="440" width="20" height="20" as="geometry"/>
                </mxCell>
                <mxCell id="r8ihxzE9rvK1Nhk9idx7-67" value="1" style="text;html=1;align=center;verticalAlign=middle;resizable=0;points=[];autosize=1;strokeColor=none;fillColor=none;" parent="1" vertex="1">
                    <mxGeometry x="720" y="609" width="20" height="20" as="geometry"/>
                </mxCell>
                <mxCell id="r8ihxzE9rvK1Nhk9idx7-68" value="Titulo" style="ellipse;whiteSpace=wrap;html=1;" parent="1" vertex="1">
                    <mxGeometry x="140" y="370" width="80" height="50" as="geometry"/>
                </mxCell>
                <mxCell id="r8ihxzE9rvK1Nhk9idx7-69" value="Prestamos" style="rounded=0;whiteSpace=wrap;html=1;" parent="1" vertex="1">
                    <mxGeometry x="240" y="570" width="120" height="60" as="geometry"/>
                </mxCell>
                <mxCell id="r8ihxzE9rvK1Nhk9idx7-72" value="tipo_autor" style="ellipse;whiteSpace=wrap;html=1;" parent="1" vertex="1">
                    <mxGeometry x="230" y="80" width="80" height="50" as="geometry"/>
                </mxCell>
                <mxCell id="r8ihxzE9rvK1Nhk9idx7-73" value="" style="endArrow=none;html=1;rounded=0;entryX=1;entryY=1;entryDx=0;entryDy=0;exitX=0;exitY=0;exitDx=0;exitDy=0;" parent="1" source="r8ihxzE9rvK1Nhk9idx7-38" target="r8ihxzE9rvK1Nhk9idx7-72" edge="1">
                    <mxGeometry width="50" height="50" relative="1" as="geometry">
                        <mxPoint x="800" y="410" as="sourcePoint"/>
                        <mxPoint x="850" y="360" as="targetPoint"/>
                    </mxGeometry>
                </mxCell>
                <mxCell id="r8ihxzE9rvK1Nhk9idx7-74" value="solicita" style="rhombus;whiteSpace=wrap;html=1;" parent="1" vertex="1">
                    <mxGeometry x="410" y="450" width="80" height="80" as="geometry"/>
                </mxCell>
                <mxCell id="r8ihxzE9rvK1Nhk9idx7-75" value="contiene" style="rhombus;whiteSpace=wrap;html=1;" parent="1" vertex="1">
                    <mxGeometry x="260" y="402.5" width="80" height="80" as="geometry"/>
                </mxCell>
                <mxCell id="r8ihxzE9rvK1Nhk9idx7-76" value="" style="endArrow=none;html=1;rounded=0;entryX=0;entryY=1;entryDx=0;entryDy=0;" parent="1" source="r8ihxzE9rvK1Nhk9idx7-74" target="r8ihxzE9rvK1Nhk9idx7-24" edge="1">
                    <mxGeometry width="50" height="50" relative="1" as="geometry">
                        <mxPoint x="490" y="477.5" as="sourcePoint"/>
                        <mxPoint x="540" y="427.5" as="targetPoint"/>
                    </mxGeometry>
                </mxCell>
                <mxCell id="r8ihxzE9rvK1Nhk9idx7-77" value="" style="endArrow=none;html=1;rounded=0;exitX=0.75;exitY=0;exitDx=0;exitDy=0;" parent="1" source="r8ihxzE9rvK1Nhk9idx7-69" target="r8ihxzE9rvK1Nhk9idx7-74" edge="1">
                    <mxGeometry width="50" height="50" relative="1" as="geometry">
                        <mxPoint x="650" y="460" as="sourcePoint"/>
                        <mxPoint x="700" y="410" as="targetPoint"/>
                    </mxGeometry>
                </mxCell>
                <mxCell id="r8ihxzE9rvK1Nhk9idx7-78" value="" style="endArrow=none;html=1;rounded=0;entryX=0.5;entryY=1;entryDx=0;entryDy=0;exitX=0.5;exitY=0;exitDx=0;exitDy=0;" parent="1" source="r8ihxzE9rvK1Nhk9idx7-75" target="r8ihxzE9rvK1Nhk9idx7-1" edge="1">
                    <mxGeometry width="50" height="50" relative="1" as="geometry">
                        <mxPoint x="430" y="410" as="sourcePoint"/>
                        <mxPoint x="780" y="300" as="targetPoint"/>
                    </mxGeometry>
                </mxCell>
                <mxCell id="r8ihxzE9rvK1Nhk9idx7-79" value="" style="endArrow=none;html=1;rounded=0;entryX=0.5;entryY=1;entryDx=0;entryDy=0;" parent="1" source="r8ihxzE9rvK1Nhk9idx7-69" target="r8ihxzE9rvK1Nhk9idx7-75" edge="1">
                    <mxGeometry width="50" height="50" relative="1" as="geometry">
                        <mxPoint x="490" y="650" as="sourcePoint"/>
                        <mxPoint x="700" y="410" as="targetPoint"/>
                    </mxGeometry>
                </mxCell>
                <mxCell id="r8ihxzE9rvK1Nhk9idx7-81" value="1" style="text;html=1;align=center;verticalAlign=middle;resizable=0;points=[];autosize=1;strokeColor=none;fillColor=none;" parent="1" vertex="1">
                    <mxGeometry x="510" y="417.5" width="20" height="20" as="geometry"/>
                </mxCell>
                <mxCell id="r8ihxzE9rvK1Nhk9idx7-82" value="n" style="text;html=1;align=center;verticalAlign=middle;resizable=0;points=[];autosize=1;strokeColor=none;fillColor=none;" parent="1" vertex="1">
                    <mxGeometry x="360" y="550" width="20" height="20" as="geometry"/>
                </mxCell>
                <mxCell id="r8ihxzE9rvK1Nhk9idx7-83" value="1" style="text;html=1;align=center;verticalAlign=middle;resizable=0;points=[];autosize=1;strokeColor=none;fillColor=none;" parent="1" vertex="1">
                    <mxGeometry x="300" y="330" width="20" height="20" as="geometry"/>
                </mxCell>
                <mxCell id="r8ihxzE9rvK1Nhk9idx7-84" value="n" style="text;html=1;align=center;verticalAlign=middle;resizable=0;points=[];autosize=1;strokeColor=none;fillColor=none;" parent="1" vertex="1">
                    <mxGeometry x="280" y="540" width="20" height="20" as="geometry"/>
                </mxCell>
                <mxCell id="r8ihxzE9rvK1Nhk9idx7-86" value="fecha_inicio" style="ellipse;whiteSpace=wrap;html=1;" parent="1" vertex="1">
                    <mxGeometry x="60" y="680" width="100" height="50" as="geometry"/>
                </mxCell>
                <mxCell id="r8ihxzE9rvK1Nhk9idx7-87" value="fecha_dev_esperada" style="ellipse;whiteSpace=wrap;html=1;" parent="1" vertex="1">
                    <mxGeometry x="170" y="739" width="130" height="50" as="geometry"/>
                </mxCell>
                <mxCell id="r8ihxzE9rvK1Nhk9idx7-88" value="fecha_dev_real" style="ellipse;whiteSpace=wrap;html=1;" parent="1" vertex="1">
                    <mxGeometry x="310" y="719" width="100" height="50" as="geometry"/>
                </mxCell>
                <mxCell id="r8ihxzE9rvK1Nhk9idx7-89" value="" style="endArrow=none;html=1;rounded=0;entryX=0;entryY=1;entryDx=0;entryDy=0;" parent="1" source="r8ihxzE9rvK1Nhk9idx7-86" target="r8ihxzE9rvK1Nhk9idx7-69" edge="1">
                    <mxGeometry width="50" height="50" relative="1" as="geometry">
                        <mxPoint x="610" y="470" as="sourcePoint"/>
                        <mxPoint x="660" y="420" as="targetPoint"/>
                    </mxGeometry>
                </mxCell>
                <mxCell id="r8ihxzE9rvK1Nhk9idx7-90" value="" style="endArrow=none;html=1;rounded=0;exitX=0.5;exitY=0;exitDx=0;exitDy=0;entryX=0.417;entryY=1;entryDx=0;entryDy=0;entryPerimeter=0;" parent="1" source="r8ihxzE9rvK1Nhk9idx7-87" target="r8ihxzE9rvK1Nhk9idx7-69" edge="1">
                    <mxGeometry width="50" height="50" relative="1" as="geometry">
                        <mxPoint x="610" y="470" as="sourcePoint"/>
                        <mxPoint x="660" y="420" as="targetPoint"/>
                    </mxGeometry>
                </mxCell>
                <mxCell id="r8ihxzE9rvK1Nhk9idx7-91" value="" style="endArrow=none;html=1;rounded=0;exitX=0.5;exitY=0;exitDx=0;exitDy=0;entryX=0.75;entryY=1;entryDx=0;entryDy=0;" parent="1" source="r8ihxzE9rvK1Nhk9idx7-88" target="r8ihxzE9rvK1Nhk9idx7-69" edge="1">
                    <mxGeometry width="50" height="50" relative="1" as="geometry">
                        <mxPoint x="610" y="470" as="sourcePoint"/>
                        <mxPoint x="660" y="420" as="targetPoint"/>
                    </mxGeometry>
                </mxCell>
                <mxCell id="ha2G2vERaeMndH2PE9ZG-1" value="&lt;u&gt;&lt;b&gt;id&lt;/b&gt;&lt;/u&gt;" style="ellipse;whiteSpace=wrap;html=1;" parent="1" vertex="1">
                    <mxGeometry x="40" y="590" width="100" height="50" as="geometry"/>
                </mxCell>
                <mxCell id="ha2G2vERaeMndH2PE9ZG-2" value="" style="endArrow=none;html=1;rounded=0;exitX=1;exitY=0.5;exitDx=0;exitDy=0;entryX=-0.008;entryY=0.633;entryDx=0;entryDy=0;entryPerimeter=0;" parent="1" source="ha2G2vERaeMndH2PE9ZG-1" target="r8ihxzE9rvK1Nhk9idx7-69" edge="1">
                    <mxGeometry width="50" height="50" relative="1" as="geometry">
                        <mxPoint x="570" y="530" as="sourcePoint"/>
                        <mxPoint x="620" y="480" as="targetPoint"/>
                    </mxGeometry>
                </mxCell>
            </root>
        </mxGraphModel>
    </diagram>
    <diagram id="as6aub4vi_kK8wNluhG8" name="Page-2">
        <mxGraphModel dx="1074" dy="767" grid="1" gridSize="10" guides="1" tooltips="1" connect="1" arrows="1" fold="1" page="1" pageScale="1" pageWidth="1200" pageHeight="900" math="0" shadow="0">
            <root>
                <mxCell id="d6sKSX3_hL5fsHFWsNX0-0"/>
                <mxCell id="d6sKSX3_hL5fsHFWsNX0-1" parent="d6sKSX3_hL5fsHFWsNX0-0"/>
                <mxCell id="d6sKSX3_hL5fsHFWsNX0-2" value="Autores" style="shape=table;startSize=30;container=1;collapsible=1;childLayout=tableLayout;fixedRows=1;rowLines=0;fontStyle=1;align=center;resizeLast=1;rounded=1;" parent="d6sKSX3_hL5fsHFWsNX0-1" vertex="1">
                    <mxGeometry x="60" y="20" width="180" height="180" as="geometry"/>
                </mxCell>
                <mxCell id="d6sKSX3_hL5fsHFWsNX0-3" value="" style="shape=tableRow;horizontal=0;startSize=0;swimlaneHead=0;swimlaneBody=0;fillColor=none;collapsible=0;dropTarget=0;points=[[0,0.5],[1,0.5]];portConstraint=eastwest;top=0;left=0;right=0;bottom=1;rounded=1;" parent="d6sKSX3_hL5fsHFWsNX0-2" vertex="1">
                    <mxGeometry y="30" width="180" height="30" as="geometry"/>
                </mxCell>
                <mxCell id="d6sKSX3_hL5fsHFWsNX0-4" value="PK" style="shape=partialRectangle;connectable=0;fillColor=none;top=0;left=0;bottom=0;right=0;fontStyle=1;overflow=hidden;rounded=1;" parent="d6sKSX3_hL5fsHFWsNX0-3" vertex="1">
                    <mxGeometry width="30" height="30" as="geometry">
                        <mxRectangle width="30" height="30" as="alternateBounds"/>
                    </mxGeometry>
                </mxCell>
                <mxCell id="d6sKSX3_hL5fsHFWsNX0-5" value="codigo" style="shape=partialRectangle;connectable=0;fillColor=none;top=0;left=0;bottom=0;right=0;align=left;spacingLeft=6;fontStyle=5;overflow=hidden;rounded=1;" parent="d6sKSX3_hL5fsHFWsNX0-3" vertex="1">
                    <mxGeometry x="30" width="150" height="30" as="geometry">
                        <mxRectangle width="150" height="30" as="alternateBounds"/>
                    </mxGeometry>
                </mxCell>
                <mxCell id="d6sKSX3_hL5fsHFWsNX0-6" value="" style="shape=tableRow;horizontal=0;startSize=0;swimlaneHead=0;swimlaneBody=0;fillColor=none;collapsible=0;dropTarget=0;points=[[0,0.5],[1,0.5]];portConstraint=eastwest;top=0;left=0;right=0;bottom=0;rounded=1;" parent="d6sKSX3_hL5fsHFWsNX0-2" vertex="1">
                    <mxGeometry y="60" width="180" height="30" as="geometry"/>
                </mxCell>
                <mxCell id="d6sKSX3_hL5fsHFWsNX0-7" value="" style="shape=partialRectangle;connectable=0;fillColor=none;top=0;left=0;bottom=0;right=0;editable=1;overflow=hidden;rounded=1;" parent="d6sKSX3_hL5fsHFWsNX0-6" vertex="1">
                    <mxGeometry width="30" height="30" as="geometry">
                        <mxRectangle width="30" height="30" as="alternateBounds"/>
                    </mxGeometry>
                </mxCell>
                <mxCell id="d6sKSX3_hL5fsHFWsNX0-8" value="nombre" style="shape=partialRectangle;connectable=0;fillColor=none;top=0;left=0;bottom=0;right=0;align=left;spacingLeft=6;overflow=hidden;rounded=1;" parent="d6sKSX3_hL5fsHFWsNX0-6" vertex="1">
                    <mxGeometry x="30" width="150" height="30" as="geometry">
                        <mxRectangle width="150" height="30" as="alternateBounds"/>
                    </mxGeometry>
                </mxCell>
                <mxCell id="d6sKSX3_hL5fsHFWsNX0-9" value="" style="shape=tableRow;horizontal=0;startSize=0;swimlaneHead=0;swimlaneBody=0;fillColor=none;collapsible=0;dropTarget=0;points=[[0,0.5],[1,0.5]];portConstraint=eastwest;top=0;left=0;right=0;bottom=0;rounded=1;" parent="d6sKSX3_hL5fsHFWsNX0-2" vertex="1">
                    <mxGeometry y="90" width="180" height="30" as="geometry"/>
                </mxCell>
                <mxCell id="d6sKSX3_hL5fsHFWsNX0-10" value="" style="shape=partialRectangle;connectable=0;fillColor=none;top=0;left=0;bottom=0;right=0;editable=1;overflow=hidden;rounded=1;" parent="d6sKSX3_hL5fsHFWsNX0-9" vertex="1">
                    <mxGeometry width="30" height="30" as="geometry">
                        <mxRectangle width="30" height="30" as="alternateBounds"/>
                    </mxGeometry>
                </mxCell>
                <mxCell id="d6sKSX3_hL5fsHFWsNX0-11" value="apellido" style="shape=partialRectangle;connectable=0;fillColor=none;top=0;left=0;bottom=0;right=0;align=left;spacingLeft=6;overflow=hidden;rounded=1;" parent="d6sKSX3_hL5fsHFWsNX0-9" vertex="1">
                    <mxGeometry x="30" width="150" height="30" as="geometry">
                        <mxRectangle width="150" height="30" as="alternateBounds"/>
                    </mxGeometry>
                </mxCell>
                <mxCell id="d6sKSX3_hL5fsHFWsNX0-12" value="" style="shape=tableRow;horizontal=0;startSize=0;swimlaneHead=0;swimlaneBody=0;fillColor=none;collapsible=0;dropTarget=0;points=[[0,0.5],[1,0.5]];portConstraint=eastwest;top=0;left=0;right=0;bottom=0;rounded=1;" parent="d6sKSX3_hL5fsHFWsNX0-2" vertex="1">
                    <mxGeometry y="120" width="180" height="30" as="geometry"/>
                </mxCell>
                <mxCell id="d6sKSX3_hL5fsHFWsNX0-13" value="" style="shape=partialRectangle;connectable=0;fillColor=none;top=0;left=0;bottom=0;right=0;editable=1;overflow=hidden;rounded=1;" parent="d6sKSX3_hL5fsHFWsNX0-12" vertex="1">
                    <mxGeometry width="30" height="30" as="geometry">
                        <mxRectangle width="30" height="30" as="alternateBounds"/>
                    </mxGeometry>
                </mxCell>
                <mxCell id="d6sKSX3_hL5fsHFWsNX0-14" value="fecha_nacimiento" style="shape=partialRectangle;connectable=0;fillColor=none;top=0;left=0;bottom=0;right=0;align=left;spacingLeft=6;overflow=hidden;rounded=1;" parent="d6sKSX3_hL5fsHFWsNX0-12" vertex="1">
                    <mxGeometry x="30" width="150" height="30" as="geometry">
                        <mxRectangle width="150" height="30" as="alternateBounds"/>
                    </mxGeometry>
                </mxCell>
                <mxCell id="dQqOFQhGZGARgO1g44J2-0" value="" style="shape=tableRow;horizontal=0;startSize=0;swimlaneHead=0;swimlaneBody=0;fillColor=none;collapsible=0;dropTarget=0;points=[[0,0.5],[1,0.5]];portConstraint=eastwest;top=0;left=0;right=0;bottom=0;rounded=1;" parent="d6sKSX3_hL5fsHFWsNX0-2" vertex="1">
                    <mxGeometry y="150" width="180" height="30" as="geometry"/>
                </mxCell>
                <mxCell id="dQqOFQhGZGARgO1g44J2-1" value="" style="shape=partialRectangle;connectable=0;fillColor=none;top=0;left=0;bottom=0;right=0;editable=1;overflow=hidden;rounded=1;" parent="dQqOFQhGZGARgO1g44J2-0" vertex="1">
                    <mxGeometry width="30" height="30" as="geometry">
                        <mxRectangle width="30" height="30" as="alternateBounds"/>
                    </mxGeometry>
                </mxCell>
                <mxCell id="dQqOFQhGZGARgO1g44J2-2" value="fecha_fallecimiento" style="shape=partialRectangle;connectable=0;fillColor=none;top=0;left=0;bottom=0;right=0;align=left;spacingLeft=6;overflow=hidden;rounded=1;" parent="dQqOFQhGZGARgO1g44J2-0" vertex="1">
                    <mxGeometry x="30" width="150" height="30" as="geometry">
                        <mxRectangle width="150" height="30" as="alternateBounds"/>
                    </mxGeometry>
                </mxCell>
                <mxCell id="ul5lxEPPVVRzyWkb3DGs-0" style="edgeStyle=orthogonalEdgeStyle;curved=0;rounded=1;sketch=0;orthogonalLoop=1;jettySize=auto;html=1;entryX=0;entryY=0.5;entryDx=0;entryDy=0;startArrow=none;startFill=0;endArrow=ERmany;endFill=0;" parent="d6sKSX3_hL5fsHFWsNX0-1" source="Y_Rez4NEPhEp4SPpSqdi-0" target="z9HekjTgSI6Cesx9qwnB-7" edge="1">
                    <mxGeometry relative="1" as="geometry"/>
                </mxCell>
                <mxCell id="Y_Rez4NEPhEp4SPpSqdi-0" value="libros" style="shape=table;startSize=30;container=1;collapsible=1;childLayout=tableLayout;fixedRows=1;rowLines=0;fontStyle=1;align=center;resizeLast=1;rounded=1;" parent="d6sKSX3_hL5fsHFWsNX0-1" vertex="1">
                    <mxGeometry x="60" y="570" width="180" height="120" as="geometry"/>
                </mxCell>
                <mxCell id="Y_Rez4NEPhEp4SPpSqdi-1" value="" style="shape=tableRow;horizontal=0;startSize=0;swimlaneHead=0;swimlaneBody=0;fillColor=none;collapsible=0;dropTarget=0;points=[[0,0.5],[1,0.5]];portConstraint=eastwest;top=0;left=0;right=0;bottom=1;rounded=1;" parent="Y_Rez4NEPhEp4SPpSqdi-0" vertex="1">
                    <mxGeometry y="30" width="180" height="30" as="geometry"/>
                </mxCell>
                <mxCell id="Y_Rez4NEPhEp4SPpSqdi-2" value="PK" style="shape=partialRectangle;connectable=0;fillColor=none;top=0;left=0;bottom=0;right=0;fontStyle=1;overflow=hidden;rounded=1;" parent="Y_Rez4NEPhEp4SPpSqdi-1" vertex="1">
                    <mxGeometry width="30" height="30" as="geometry">
                        <mxRectangle width="30" height="30" as="alternateBounds"/>
                    </mxGeometry>
                </mxCell>
                <mxCell id="Y_Rez4NEPhEp4SPpSqdi-3" value="ISBN" style="shape=partialRectangle;connectable=0;fillColor=none;top=0;left=0;bottom=0;right=0;align=left;spacingLeft=6;fontStyle=5;overflow=hidden;rounded=1;" parent="Y_Rez4NEPhEp4SPpSqdi-1" vertex="1">
                    <mxGeometry x="30" width="150" height="30" as="geometry">
                        <mxRectangle width="150" height="30" as="alternateBounds"/>
                    </mxGeometry>
                </mxCell>
                <mxCell id="Y_Rez4NEPhEp4SPpSqdi-4" value="" style="shape=tableRow;horizontal=0;startSize=0;swimlaneHead=0;swimlaneBody=0;fillColor=none;collapsible=0;dropTarget=0;points=[[0,0.5],[1,0.5]];portConstraint=eastwest;top=0;left=0;right=0;bottom=0;rounded=1;" parent="Y_Rez4NEPhEp4SPpSqdi-0" vertex="1">
                    <mxGeometry y="60" width="180" height="30" as="geometry"/>
                </mxCell>
                <mxCell id="Y_Rez4NEPhEp4SPpSqdi-5" value="" style="shape=partialRectangle;connectable=0;fillColor=none;top=0;left=0;bottom=0;right=0;editable=1;overflow=hidden;rounded=1;" parent="Y_Rez4NEPhEp4SPpSqdi-4" vertex="1">
                    <mxGeometry width="30" height="30" as="geometry">
                        <mxRectangle width="30" height="30" as="alternateBounds"/>
                    </mxGeometry>
                </mxCell>
                <mxCell id="Y_Rez4NEPhEp4SPpSqdi-6" value="titulo" style="shape=partialRectangle;connectable=0;fillColor=none;top=0;left=0;bottom=0;right=0;align=left;spacingLeft=6;overflow=hidden;rounded=1;" parent="Y_Rez4NEPhEp4SPpSqdi-4" vertex="1">
                    <mxGeometry x="30" width="150" height="30" as="geometry">
                        <mxRectangle width="150" height="30" as="alternateBounds"/>
                    </mxGeometry>
                </mxCell>
                <mxCell id="Y_Rez4NEPhEp4SPpSqdi-7" value="" style="shape=tableRow;horizontal=0;startSize=0;swimlaneHead=0;swimlaneBody=0;fillColor=none;collapsible=0;dropTarget=0;points=[[0,0.5],[1,0.5]];portConstraint=eastwest;top=0;left=0;right=0;bottom=0;rounded=1;" parent="Y_Rez4NEPhEp4SPpSqdi-0" vertex="1">
                    <mxGeometry y="90" width="180" height="30" as="geometry"/>
                </mxCell>
                <mxCell id="Y_Rez4NEPhEp4SPpSqdi-8" value="" style="shape=partialRectangle;connectable=0;fillColor=none;top=0;left=0;bottom=0;right=0;editable=1;overflow=hidden;rounded=1;" parent="Y_Rez4NEPhEp4SPpSqdi-7" vertex="1">
                    <mxGeometry width="30" height="30" as="geometry">
                        <mxRectangle width="30" height="30" as="alternateBounds"/>
                    </mxGeometry>
                </mxCell>
                <mxCell id="Y_Rez4NEPhEp4SPpSqdi-9" value="num_paginas" style="shape=partialRectangle;connectable=0;fillColor=none;top=0;left=0;bottom=0;right=0;align=left;spacingLeft=6;overflow=hidden;rounded=1;" parent="Y_Rez4NEPhEp4SPpSqdi-7" vertex="1">
                    <mxGeometry x="30" width="150" height="30" as="geometry">
                        <mxRectangle width="150" height="30" as="alternateBounds"/>
                    </mxGeometry>
                </mxCell>
                <mxCell id="GEAZCkc50Jjd_5Wf1-0F-0" style="edgeStyle=orthogonalEdgeStyle;curved=0;rounded=1;sketch=0;orthogonalLoop=1;jettySize=auto;html=1;entryX=0.5;entryY=0;entryDx=0;entryDy=0;endArrow=ERmany;endFill=0;startArrow=none;startFill=0;" parent="d6sKSX3_hL5fsHFWsNX0-1" source="D_up52SohBpldiJKJhdb-0" target="z9HekjTgSI6Cesx9qwnB-0" edge="1">
                    <mxGeometry relative="1" as="geometry"/>
                </mxCell>
                <mxCell id="KFahBBUbhbSg9HqNO-M7-0" style="edgeStyle=orthogonalEdgeStyle;curved=0;rounded=1;sketch=0;orthogonalLoop=1;jettySize=auto;html=1;entryX=0;entryY=0.5;entryDx=0;entryDy=0;startArrow=ERmany;startFill=0;endArrow=none;endFill=0;" parent="d6sKSX3_hL5fsHFWsNX0-1" source="D_up52SohBpldiJKJhdb-0" target="nX8REOhuIX4pprLOXuY2-10" edge="1">
                    <mxGeometry relative="1" as="geometry"/>
                </mxCell>
                <mxCell id="D_up52SohBpldiJKJhdb-0" value="Socios" style="shape=table;startSize=30;container=1;collapsible=1;childLayout=tableLayout;fixedRows=1;rowLines=0;fontStyle=1;align=center;resizeLast=1;rounded=1;sketch=0;" parent="d6sKSX3_hL5fsHFWsNX0-1" vertex="1">
                    <mxGeometry x="460" y="300" width="180" height="170" as="geometry"/>
                </mxCell>
                <mxCell id="D_up52SohBpldiJKJhdb-1" value="" style="shape=tableRow;horizontal=0;startSize=0;swimlaneHead=0;swimlaneBody=0;fillColor=none;collapsible=0;dropTarget=0;points=[[0,0.5],[1,0.5]];portConstraint=eastwest;top=0;left=0;right=0;bottom=1;rounded=0;sketch=0;" parent="D_up52SohBpldiJKJhdb-0" vertex="1">
                    <mxGeometry y="30" width="180" height="30" as="geometry"/>
                </mxCell>
                <mxCell id="D_up52SohBpldiJKJhdb-2" value="PK" style="shape=partialRectangle;connectable=0;fillColor=none;top=0;left=0;bottom=0;right=0;fontStyle=1;overflow=hidden;rounded=0;sketch=0;" parent="D_up52SohBpldiJKJhdb-1" vertex="1">
                    <mxGeometry width="30" height="30" as="geometry">
                        <mxRectangle width="30" height="30" as="alternateBounds"/>
                    </mxGeometry>
                </mxCell>
                <mxCell id="D_up52SohBpldiJKJhdb-3" value="rut" style="shape=partialRectangle;connectable=0;fillColor=none;top=0;left=0;bottom=0;right=0;align=left;spacingLeft=6;fontStyle=5;overflow=hidden;rounded=0;sketch=0;" parent="D_up52SohBpldiJKJhdb-1" vertex="1">
                    <mxGeometry x="30" width="150" height="30" as="geometry">
                        <mxRectangle width="150" height="30" as="alternateBounds"/>
                    </mxGeometry>
                </mxCell>
                <mxCell id="D_up52SohBpldiJKJhdb-4" value="" style="shape=tableRow;horizontal=0;startSize=0;swimlaneHead=0;swimlaneBody=0;fillColor=none;collapsible=0;dropTarget=0;points=[[0,0.5],[1,0.5]];portConstraint=eastwest;top=0;left=0;right=0;bottom=0;rounded=0;sketch=0;" parent="D_up52SohBpldiJKJhdb-0" vertex="1">
                    <mxGeometry y="60" width="180" height="30" as="geometry"/>
                </mxCell>
                <mxCell id="D_up52SohBpldiJKJhdb-5" value="" style="shape=partialRectangle;connectable=0;fillColor=none;top=0;left=0;bottom=0;right=0;editable=1;overflow=hidden;rounded=0;sketch=0;" parent="D_up52SohBpldiJKJhdb-4" vertex="1">
                    <mxGeometry width="30" height="30" as="geometry">
                        <mxRectangle width="30" height="30" as="alternateBounds"/>
                    </mxGeometry>
                </mxCell>
                <mxCell id="D_up52SohBpldiJKJhdb-6" value="nombre" style="shape=partialRectangle;connectable=0;fillColor=none;top=0;left=0;bottom=0;right=0;align=left;spacingLeft=6;overflow=hidden;rounded=0;sketch=0;" parent="D_up52SohBpldiJKJhdb-4" vertex="1">
                    <mxGeometry x="30" width="150" height="30" as="geometry">
                        <mxRectangle width="150" height="30" as="alternateBounds"/>
                    </mxGeometry>
                </mxCell>
                <mxCell id="D_up52SohBpldiJKJhdb-7" value="" style="shape=tableRow;horizontal=0;startSize=0;swimlaneHead=0;swimlaneBody=0;fillColor=none;collapsible=0;dropTarget=0;points=[[0,0.5],[1,0.5]];portConstraint=eastwest;top=0;left=0;right=0;bottom=0;rounded=0;sketch=0;" parent="D_up52SohBpldiJKJhdb-0" vertex="1">
                    <mxGeometry y="90" width="180" height="30" as="geometry"/>
                </mxCell>
                <mxCell id="D_up52SohBpldiJKJhdb-8" value="" style="shape=partialRectangle;connectable=0;fillColor=none;top=0;left=0;bottom=0;right=0;editable=1;overflow=hidden;rounded=0;sketch=0;" parent="D_up52SohBpldiJKJhdb-7" vertex="1">
                    <mxGeometry width="30" height="30" as="geometry">
                        <mxRectangle width="30" height="30" as="alternateBounds"/>
                    </mxGeometry>
                </mxCell>
                <mxCell id="D_up52SohBpldiJKJhdb-9" value="apellido" style="shape=partialRectangle;connectable=0;fillColor=none;top=0;left=0;bottom=0;right=0;align=left;spacingLeft=6;overflow=hidden;rounded=0;sketch=0;" parent="D_up52SohBpldiJKJhdb-7" vertex="1">
                    <mxGeometry x="30" width="150" height="30" as="geometry">
                        <mxRectangle width="150" height="30" as="alternateBounds"/>
                    </mxGeometry>
                </mxCell>
                <mxCell id="D_up52SohBpldiJKJhdb-10" value="" style="shape=tableRow;horizontal=0;startSize=0;swimlaneHead=0;swimlaneBody=0;fillColor=none;collapsible=0;dropTarget=0;points=[[0,0.5],[1,0.5]];portConstraint=eastwest;top=0;left=0;right=0;bottom=0;rounded=0;sketch=0;" parent="D_up52SohBpldiJKJhdb-0" vertex="1">
                    <mxGeometry y="120" width="180" height="30" as="geometry"/>
                </mxCell>
                <mxCell id="D_up52SohBpldiJKJhdb-11" value="" style="shape=partialRectangle;connectable=0;fillColor=none;top=0;left=0;bottom=0;right=0;editable=1;overflow=hidden;rounded=0;sketch=0;" parent="D_up52SohBpldiJKJhdb-10" vertex="1">
                    <mxGeometry width="30" height="30" as="geometry">
                        <mxRectangle width="30" height="30" as="alternateBounds"/>
                    </mxGeometry>
                </mxCell>
                <mxCell id="D_up52SohBpldiJKJhdb-12" value="telefono" style="shape=partialRectangle;connectable=0;fillColor=none;top=0;left=0;bottom=0;right=0;align=left;spacingLeft=6;overflow=hidden;rounded=0;sketch=0;" parent="D_up52SohBpldiJKJhdb-10" vertex="1">
                    <mxGeometry x="30" width="150" height="30" as="geometry">
                        <mxRectangle width="150" height="30" as="alternateBounds"/>
                    </mxGeometry>
                </mxCell>
                <mxCell id="nX8REOhuIX4pprLOXuY2-3" value="" style="shape=tableRow;horizontal=0;startSize=0;swimlaneHead=0;swimlaneBody=0;fillColor=none;collapsible=0;dropTarget=0;points=[[0,0.5],[1,0.5]];portConstraint=eastwest;top=0;left=0;right=0;bottom=0;rounded=0;sketch=0;" parent="D_up52SohBpldiJKJhdb-0" vertex="1">
                    <mxGeometry y="150" width="180" height="20" as="geometry"/>
                </mxCell>
                <mxCell id="nX8REOhuIX4pprLOXuY2-4" value="FK" style="shape=partialRectangle;connectable=0;fillColor=none;top=0;left=0;bottom=0;right=0;fontStyle=0;overflow=hidden;rounded=0;sketch=0;" parent="nX8REOhuIX4pprLOXuY2-3" vertex="1">
                    <mxGeometry width="30" height="20" as="geometry">
                        <mxRectangle width="30" height="20" as="alternateBounds"/>
                    </mxGeometry>
                </mxCell>
                <mxCell id="nX8REOhuIX4pprLOXuY2-5" value="id_direccion" style="shape=partialRectangle;connectable=0;fillColor=none;top=0;left=0;bottom=0;right=0;align=left;spacingLeft=6;fontStyle=0;overflow=hidden;rounded=0;sketch=0;" parent="nX8REOhuIX4pprLOXuY2-3" vertex="1">
                    <mxGeometry x="30" width="150" height="20" as="geometry">
                        <mxRectangle width="150" height="20" as="alternateBounds"/>
                    </mxGeometry>
                </mxCell>
                <mxCell id="Isio79RP5l4T1e5s4zIx-0" style="edgeStyle=orthogonalEdgeStyle;curved=0;rounded=1;sketch=0;orthogonalLoop=1;jettySize=auto;html=1;entryX=0.5;entryY=0;entryDx=0;entryDy=0;startArrow=none;startFill=0;endArrow=ERmany;endFill=0;" parent="d6sKSX3_hL5fsHFWsNX0-1" source="nX8REOhuIX4pprLOXuY2-6" target="ZQQOoDAzH1mHbGUiQ7rG-0" edge="1">
                    <mxGeometry relative="1" as="geometry"/>
                </mxCell>
                <mxCell id="nX8REOhuIX4pprLOXuY2-6" value="Direcciones" style="shape=table;startSize=30;container=1;collapsible=1;childLayout=tableLayout;fixedRows=1;rowLines=0;fontStyle=1;align=center;resizeLast=1;rounded=1;sketch=0;shadow=0;swimlaneLine=1;" parent="d6sKSX3_hL5fsHFWsNX0-1" vertex="1">
                    <mxGeometry x="830" y="60" width="180" height="140" as="geometry"/>
                </mxCell>
                <mxCell id="nX8REOhuIX4pprLOXuY2-7" value="" style="shape=tableRow;horizontal=0;startSize=0;swimlaneHead=0;swimlaneBody=0;fillColor=none;collapsible=0;dropTarget=0;points=[[0,0.5],[1,0.5]];portConstraint=eastwest;top=0;left=0;right=0;bottom=1;rounded=0;sketch=0;" parent="nX8REOhuIX4pprLOXuY2-6" vertex="1">
                    <mxGeometry y="30" width="180" height="30" as="geometry"/>
                </mxCell>
                <mxCell id="nX8REOhuIX4pprLOXuY2-8" value="PK" style="shape=partialRectangle;connectable=0;fillColor=none;top=0;left=0;bottom=0;right=0;fontStyle=1;overflow=hidden;rounded=0;sketch=0;" parent="nX8REOhuIX4pprLOXuY2-7" vertex="1">
                    <mxGeometry width="30" height="30" as="geometry">
                        <mxRectangle width="30" height="30" as="alternateBounds"/>
                    </mxGeometry>
                </mxCell>
                <mxCell id="nX8REOhuIX4pprLOXuY2-9" value="id" style="shape=partialRectangle;connectable=0;fillColor=none;top=0;left=0;bottom=0;right=0;align=left;spacingLeft=6;fontStyle=5;overflow=hidden;rounded=0;sketch=0;" parent="nX8REOhuIX4pprLOXuY2-7" vertex="1">
                    <mxGeometry x="30" width="150" height="30" as="geometry">
                        <mxRectangle width="150" height="30" as="alternateBounds"/>
                    </mxGeometry>
                </mxCell>
                <mxCell id="nX8REOhuIX4pprLOXuY2-10" value="" style="shape=tableRow;horizontal=0;startSize=0;swimlaneHead=0;swimlaneBody=0;fillColor=none;collapsible=0;dropTarget=0;points=[[0,0.5],[1,0.5]];portConstraint=eastwest;top=0;left=0;right=0;bottom=0;rounded=0;sketch=0;" parent="nX8REOhuIX4pprLOXuY2-6" vertex="1">
                    <mxGeometry y="60" width="180" height="20" as="geometry"/>
                </mxCell>
                <mxCell id="nX8REOhuIX4pprLOXuY2-11" value="" style="shape=partialRectangle;connectable=0;fillColor=none;top=0;left=0;bottom=0;right=0;editable=1;overflow=hidden;rounded=0;sketch=0;" parent="nX8REOhuIX4pprLOXuY2-10" vertex="1">
                    <mxGeometry width="30" height="20" as="geometry">
                        <mxRectangle width="30" height="20" as="alternateBounds"/>
                    </mxGeometry>
                </mxCell>
                <mxCell id="nX8REOhuIX4pprLOXuY2-12" value="calle" style="shape=partialRectangle;connectable=0;fillColor=none;top=0;left=0;bottom=0;right=0;align=left;spacingLeft=6;overflow=hidden;rounded=0;sketch=0;" parent="nX8REOhuIX4pprLOXuY2-10" vertex="1">
                    <mxGeometry x="30" width="150" height="20" as="geometry">
                        <mxRectangle width="150" height="20" as="alternateBounds"/>
                    </mxGeometry>
                </mxCell>
                <mxCell id="nX8REOhuIX4pprLOXuY2-13" value="" style="shape=tableRow;horizontal=0;startSize=0;swimlaneHead=0;swimlaneBody=0;fillColor=none;collapsible=0;dropTarget=0;points=[[0,0.5],[1,0.5]];portConstraint=eastwest;top=0;left=0;right=0;bottom=0;rounded=0;sketch=0;" parent="nX8REOhuIX4pprLOXuY2-6" vertex="1">
                    <mxGeometry y="80" width="180" height="30" as="geometry"/>
                </mxCell>
                <mxCell id="nX8REOhuIX4pprLOXuY2-14" value="" style="shape=partialRectangle;connectable=0;fillColor=none;top=0;left=0;bottom=0;right=0;editable=1;overflow=hidden;rounded=0;sketch=0;" parent="nX8REOhuIX4pprLOXuY2-13" vertex="1">
                    <mxGeometry width="30" height="30" as="geometry">
                        <mxRectangle width="30" height="30" as="alternateBounds"/>
                    </mxGeometry>
                </mxCell>
                <mxCell id="nX8REOhuIX4pprLOXuY2-15" value="numero" style="shape=partialRectangle;connectable=0;fillColor=none;top=0;left=0;bottom=0;right=0;align=left;spacingLeft=6;overflow=hidden;rounded=0;sketch=0;" parent="nX8REOhuIX4pprLOXuY2-13" vertex="1">
                    <mxGeometry x="30" width="150" height="30" as="geometry">
                        <mxRectangle width="150" height="30" as="alternateBounds"/>
                    </mxGeometry>
                </mxCell>
                <mxCell id="UpVnfrEDMWcaVWZ-3nIS-0" value="" style="shape=tableRow;horizontal=0;startSize=0;swimlaneHead=0;swimlaneBody=0;fillColor=none;collapsible=0;dropTarget=0;points=[[0,0.5],[1,0.5]];portConstraint=eastwest;top=0;left=0;right=0;bottom=0;rounded=1;shadow=0;sketch=0;" parent="nX8REOhuIX4pprLOXuY2-6" vertex="1">
                    <mxGeometry y="110" width="180" height="30" as="geometry"/>
                </mxCell>
                <mxCell id="UpVnfrEDMWcaVWZ-3nIS-1" value="FK" style="shape=partialRectangle;connectable=0;fillColor=none;top=0;left=0;bottom=0;right=0;fontStyle=0;overflow=hidden;rounded=1;shadow=0;sketch=0;" parent="UpVnfrEDMWcaVWZ-3nIS-0" vertex="1">
                    <mxGeometry width="30" height="30" as="geometry">
                        <mxRectangle width="30" height="30" as="alternateBounds"/>
                    </mxGeometry>
                </mxCell>
                <mxCell id="UpVnfrEDMWcaVWZ-3nIS-2" value="id_comuna" style="shape=partialRectangle;connectable=0;fillColor=none;top=0;left=0;bottom=0;right=0;align=left;spacingLeft=6;fontStyle=0;overflow=hidden;rounded=1;shadow=0;sketch=0;" parent="UpVnfrEDMWcaVWZ-3nIS-0" vertex="1">
                    <mxGeometry x="30" width="150" height="30" as="geometry">
                        <mxRectangle width="150" height="30" as="alternateBounds"/>
                    </mxGeometry>
                </mxCell>
                <mxCell id="ZQQOoDAzH1mHbGUiQ7rG-0" value="Comunas" style="shape=table;startSize=30;container=1;collapsible=1;childLayout=tableLayout;fixedRows=1;rowLines=0;fontStyle=1;align=center;resizeLast=1;rounded=1;shadow=0;sketch=0;" parent="d6sKSX3_hL5fsHFWsNX0-1" vertex="1">
                    <mxGeometry x="860" y="480" width="180" height="90" as="geometry"/>
                </mxCell>
                <mxCell id="ZQQOoDAzH1mHbGUiQ7rG-1" value="" style="shape=tableRow;horizontal=0;startSize=0;swimlaneHead=0;swimlaneBody=0;fillColor=none;collapsible=0;dropTarget=0;points=[[0,0.5],[1,0.5]];portConstraint=eastwest;top=0;left=0;right=0;bottom=1;rounded=1;shadow=0;sketch=0;" parent="ZQQOoDAzH1mHbGUiQ7rG-0" vertex="1">
                    <mxGeometry y="30" width="180" height="30" as="geometry"/>
                </mxCell>
                <mxCell id="ZQQOoDAzH1mHbGUiQ7rG-2" value="PK" style="shape=partialRectangle;connectable=0;fillColor=none;top=0;left=0;bottom=0;right=0;fontStyle=1;overflow=hidden;rounded=1;shadow=0;sketch=0;" parent="ZQQOoDAzH1mHbGUiQ7rG-1" vertex="1">
                    <mxGeometry width="30" height="30" as="geometry">
                        <mxRectangle width="30" height="30" as="alternateBounds"/>
                    </mxGeometry>
                </mxCell>
                <mxCell id="ZQQOoDAzH1mHbGUiQ7rG-3" value="id" style="shape=partialRectangle;connectable=0;fillColor=none;top=0;left=0;bottom=0;right=0;align=left;spacingLeft=6;fontStyle=5;overflow=hidden;rounded=1;shadow=0;sketch=0;" parent="ZQQOoDAzH1mHbGUiQ7rG-1" vertex="1">
                    <mxGeometry x="30" width="150" height="30" as="geometry">
                        <mxRectangle width="150" height="30" as="alternateBounds"/>
                    </mxGeometry>
                </mxCell>
                <mxCell id="ZQQOoDAzH1mHbGUiQ7rG-4" value="" style="shape=tableRow;horizontal=0;startSize=0;swimlaneHead=0;swimlaneBody=0;fillColor=none;collapsible=0;dropTarget=0;points=[[0,0.5],[1,0.5]];portConstraint=eastwest;top=0;left=0;right=0;bottom=0;rounded=1;shadow=0;sketch=0;" parent="ZQQOoDAzH1mHbGUiQ7rG-0" vertex="1">
                    <mxGeometry y="60" width="180" height="30" as="geometry"/>
                </mxCell>
                <mxCell id="ZQQOoDAzH1mHbGUiQ7rG-5" value="" style="shape=partialRectangle;connectable=0;fillColor=none;top=0;left=0;bottom=0;right=0;editable=1;overflow=hidden;rounded=1;shadow=0;sketch=0;" parent="ZQQOoDAzH1mHbGUiQ7rG-4" vertex="1">
                    <mxGeometry width="30" height="30" as="geometry">
                        <mxRectangle width="30" height="30" as="alternateBounds"/>
                    </mxGeometry>
                </mxCell>
                <mxCell id="ZQQOoDAzH1mHbGUiQ7rG-6" value="nombre" style="shape=partialRectangle;connectable=0;fillColor=none;top=0;left=0;bottom=0;right=0;align=left;spacingLeft=6;overflow=hidden;rounded=1;shadow=0;sketch=0;" parent="ZQQOoDAzH1mHbGUiQ7rG-4" vertex="1">
                    <mxGeometry x="30" width="150" height="30" as="geometry">
                        <mxRectangle width="150" height="30" as="alternateBounds"/>
                    </mxGeometry>
                </mxCell>
                <mxCell id="z9HekjTgSI6Cesx9qwnB-0" value="Prestamo" style="shape=table;startSize=30;container=1;collapsible=1;childLayout=tableLayout;fixedRows=1;rowLines=0;fontStyle=1;align=center;resizeLast=1;rounded=1;shadow=0;sketch=0;" parent="d6sKSX3_hL5fsHFWsNX0-1" vertex="1">
                    <mxGeometry x="460" y="660" width="180" height="210" as="geometry"/>
                </mxCell>
                <mxCell id="z9HekjTgSI6Cesx9qwnB-1" value="" style="shape=tableRow;horizontal=0;startSize=0;swimlaneHead=0;swimlaneBody=0;fillColor=none;collapsible=0;dropTarget=0;points=[[0,0.5],[1,0.5]];portConstraint=eastwest;top=0;left=0;right=0;bottom=1;rounded=1;shadow=0;sketch=0;" parent="z9HekjTgSI6Cesx9qwnB-0" vertex="1">
                    <mxGeometry y="30" width="180" height="30" as="geometry"/>
                </mxCell>
                <mxCell id="z9HekjTgSI6Cesx9qwnB-2" value="PK" style="shape=partialRectangle;connectable=0;fillColor=none;top=0;left=0;bottom=0;right=0;fontStyle=1;overflow=hidden;rounded=1;shadow=0;sketch=0;" parent="z9HekjTgSI6Cesx9qwnB-1" vertex="1">
                    <mxGeometry width="30" height="30" as="geometry">
                        <mxRectangle width="30" height="30" as="alternateBounds"/>
                    </mxGeometry>
                </mxCell>
                <mxCell id="z9HekjTgSI6Cesx9qwnB-3" value="id" style="shape=partialRectangle;connectable=0;fillColor=none;top=0;left=0;bottom=0;right=0;align=left;spacingLeft=6;fontStyle=5;overflow=hidden;rounded=1;shadow=0;sketch=0;" parent="z9HekjTgSI6Cesx9qwnB-1" vertex="1">
                    <mxGeometry x="30" width="150" height="30" as="geometry">
                        <mxRectangle width="150" height="30" as="alternateBounds"/>
                    </mxGeometry>
                </mxCell>
                <mxCell id="z9HekjTgSI6Cesx9qwnB-4" value="" style="shape=tableRow;horizontal=0;startSize=0;swimlaneHead=0;swimlaneBody=0;fillColor=none;collapsible=0;dropTarget=0;points=[[0,0.5],[1,0.5]];portConstraint=eastwest;top=0;left=0;right=0;bottom=0;rounded=1;shadow=0;sketch=0;" parent="z9HekjTgSI6Cesx9qwnB-0" vertex="1">
                    <mxGeometry y="60" width="180" height="30" as="geometry"/>
                </mxCell>
                <mxCell id="z9HekjTgSI6Cesx9qwnB-5" value="" style="shape=partialRectangle;connectable=0;fillColor=none;top=0;left=0;bottom=0;right=0;editable=1;overflow=hidden;rounded=1;shadow=0;sketch=0;" parent="z9HekjTgSI6Cesx9qwnB-4" vertex="1">
                    <mxGeometry width="30" height="30" as="geometry">
                        <mxRectangle width="30" height="30" as="alternateBounds"/>
                    </mxGeometry>
                </mxCell>
                <mxCell id="z9HekjTgSI6Cesx9qwnB-6" value="fecha_inicio" style="shape=partialRectangle;connectable=0;fillColor=none;top=0;left=0;bottom=0;right=0;align=left;spacingLeft=6;overflow=hidden;rounded=1;shadow=0;sketch=0;" parent="z9HekjTgSI6Cesx9qwnB-4" vertex="1">
                    <mxGeometry x="30" width="150" height="30" as="geometry">
                        <mxRectangle width="150" height="30" as="alternateBounds"/>
                    </mxGeometry>
                </mxCell>
                <mxCell id="z9HekjTgSI6Cesx9qwnB-7" value="" style="shape=tableRow;horizontal=0;startSize=0;swimlaneHead=0;swimlaneBody=0;fillColor=none;collapsible=0;dropTarget=0;points=[[0,0.5],[1,0.5]];portConstraint=eastwest;top=0;left=0;right=0;bottom=0;rounded=1;shadow=0;sketch=0;" parent="z9HekjTgSI6Cesx9qwnB-0" vertex="1">
                    <mxGeometry y="90" width="180" height="30" as="geometry"/>
                </mxCell>
                <mxCell id="z9HekjTgSI6Cesx9qwnB-8" value="" style="shape=partialRectangle;connectable=0;fillColor=none;top=0;left=0;bottom=0;right=0;editable=1;overflow=hidden;rounded=1;shadow=0;sketch=0;" parent="z9HekjTgSI6Cesx9qwnB-7" vertex="1">
                    <mxGeometry width="30" height="30" as="geometry">
                        <mxRectangle width="30" height="30" as="alternateBounds"/>
                    </mxGeometry>
                </mxCell>
                <mxCell id="z9HekjTgSI6Cesx9qwnB-9" value="fecha_dev_esperada" style="shape=partialRectangle;connectable=0;fillColor=none;top=0;left=0;bottom=0;right=0;align=left;spacingLeft=6;overflow=hidden;rounded=1;shadow=0;sketch=0;" parent="z9HekjTgSI6Cesx9qwnB-7" vertex="1">
                    <mxGeometry x="30" width="150" height="30" as="geometry">
                        <mxRectangle width="150" height="30" as="alternateBounds"/>
                    </mxGeometry>
                </mxCell>
                <mxCell id="z9HekjTgSI6Cesx9qwnB-10" value="" style="shape=tableRow;horizontal=0;startSize=0;swimlaneHead=0;swimlaneBody=0;fillColor=none;collapsible=0;dropTarget=0;points=[[0,0.5],[1,0.5]];portConstraint=eastwest;top=0;left=0;right=0;bottom=0;rounded=1;shadow=0;sketch=0;" parent="z9HekjTgSI6Cesx9qwnB-0" vertex="1">
                    <mxGeometry y="120" width="180" height="30" as="geometry"/>
                </mxCell>
                <mxCell id="z9HekjTgSI6Cesx9qwnB-11" value="" style="shape=partialRectangle;connectable=0;fillColor=none;top=0;left=0;bottom=0;right=0;editable=1;overflow=hidden;rounded=1;shadow=0;sketch=0;" parent="z9HekjTgSI6Cesx9qwnB-10" vertex="1">
                    <mxGeometry width="30" height="30" as="geometry">
                        <mxRectangle width="30" height="30" as="alternateBounds"/>
                    </mxGeometry>
                </mxCell>
                <mxCell id="z9HekjTgSI6Cesx9qwnB-12" value="fecha_dev_real" style="shape=partialRectangle;connectable=0;fillColor=none;top=0;left=0;bottom=0;right=0;align=left;spacingLeft=6;overflow=hidden;rounded=1;shadow=0;sketch=0;" parent="z9HekjTgSI6Cesx9qwnB-10" vertex="1">
                    <mxGeometry x="30" width="150" height="30" as="geometry">
                        <mxRectangle width="150" height="30" as="alternateBounds"/>
                    </mxGeometry>
                </mxCell>
                <mxCell id="HBgkvf9dt2CPcpTgUyMg-3" value="" style="shape=tableRow;horizontal=0;startSize=0;swimlaneHead=0;swimlaneBody=0;fillColor=none;collapsible=0;dropTarget=0;points=[[0,0.5],[1,0.5]];portConstraint=eastwest;top=0;left=0;right=0;bottom=0;rounded=1;shadow=0;sketch=0;" parent="z9HekjTgSI6Cesx9qwnB-0" vertex="1">
                    <mxGeometry y="150" width="180" height="30" as="geometry"/>
                </mxCell>
                <mxCell id="HBgkvf9dt2CPcpTgUyMg-4" value="FK" style="shape=partialRectangle;connectable=0;fillColor=none;top=0;left=0;bottom=0;right=0;fontStyle=0;overflow=hidden;rounded=1;shadow=0;sketch=0;" parent="HBgkvf9dt2CPcpTgUyMg-3" vertex="1">
                    <mxGeometry width="30" height="30" as="geometry">
                        <mxRectangle width="30" height="30" as="alternateBounds"/>
                    </mxGeometry>
                </mxCell>
                <mxCell id="HBgkvf9dt2CPcpTgUyMg-5" value="rut_socios" style="shape=partialRectangle;connectable=0;fillColor=none;top=0;left=0;bottom=0;right=0;align=left;spacingLeft=6;fontStyle=0;overflow=hidden;rounded=1;shadow=0;sketch=0;" parent="HBgkvf9dt2CPcpTgUyMg-3" vertex="1">
                    <mxGeometry x="30" width="150" height="30" as="geometry">
                        <mxRectangle width="150" height="30" as="alternateBounds"/>
                    </mxGeometry>
                </mxCell>
                <mxCell id="HBgkvf9dt2CPcpTgUyMg-6" value="" style="shape=tableRow;horizontal=0;startSize=0;swimlaneHead=0;swimlaneBody=0;fillColor=none;collapsible=0;dropTarget=0;points=[[0,0.5],[1,0.5]];portConstraint=eastwest;top=0;left=0;right=0;bottom=0;rounded=1;shadow=0;sketch=0;" parent="z9HekjTgSI6Cesx9qwnB-0" vertex="1">
                    <mxGeometry y="180" width="180" height="30" as="geometry"/>
                </mxCell>
                <mxCell id="HBgkvf9dt2CPcpTgUyMg-7" value="FK" style="shape=partialRectangle;connectable=0;fillColor=none;top=0;left=0;bottom=0;right=0;fontStyle=0;overflow=hidden;rounded=1;shadow=0;sketch=0;" parent="HBgkvf9dt2CPcpTgUyMg-6" vertex="1">
                    <mxGeometry width="30" height="30" as="geometry">
                        <mxRectangle width="30" height="30" as="alternateBounds"/>
                    </mxGeometry>
                </mxCell>
                <mxCell id="HBgkvf9dt2CPcpTgUyMg-8" value="ISBN_libros" style="shape=partialRectangle;connectable=0;fillColor=none;top=0;left=0;bottom=0;right=0;align=left;spacingLeft=6;fontStyle=0;overflow=hidden;rounded=1;shadow=0;sketch=0;" parent="HBgkvf9dt2CPcpTgUyMg-6" vertex="1">
                    <mxGeometry x="30" width="150" height="30" as="geometry">
                        <mxRectangle width="150" height="30" as="alternateBounds"/>
                    </mxGeometry>
                </mxCell>
                <mxCell id="HRTCJ7Vf4itoT8xbrcnB-0" value="Libros_autores" style="shape=table;startSize=30;container=1;collapsible=1;childLayout=tableLayout;fixedRows=1;rowLines=0;fontStyle=1;align=center;resizeLast=1;rounded=1;shadow=0;sketch=0;" parent="d6sKSX3_hL5fsHFWsNX0-1" vertex="1">
                    <mxGeometry x="45" y="310" width="210" height="150" as="geometry"/>
                </mxCell>
                <mxCell id="HRTCJ7Vf4itoT8xbrcnB-1" value="" style="shape=tableRow;horizontal=0;startSize=0;swimlaneHead=0;swimlaneBody=0;fillColor=none;collapsible=0;dropTarget=0;points=[[0,0.5],[1,0.5]];portConstraint=eastwest;top=0;left=0;right=0;bottom=1;rounded=1;shadow=0;sketch=0;" parent="HRTCJ7Vf4itoT8xbrcnB-0" vertex="1">
                    <mxGeometry y="30" width="210" height="30" as="geometry"/>
                </mxCell>
                <mxCell id="HRTCJ7Vf4itoT8xbrcnB-2" value="PK" style="shape=partialRectangle;connectable=0;fillColor=none;top=0;left=0;bottom=0;right=0;fontStyle=1;overflow=hidden;rounded=1;shadow=0;sketch=0;" parent="HRTCJ7Vf4itoT8xbrcnB-1" vertex="1">
                    <mxGeometry width="30" height="30" as="geometry">
                        <mxRectangle width="30" height="30" as="alternateBounds"/>
                    </mxGeometry>
                </mxCell>
                <mxCell id="HRTCJ7Vf4itoT8xbrcnB-3" value="(autor_codigo, libro_isbn)" style="shape=partialRectangle;connectable=0;fillColor=none;top=0;left=0;bottom=0;right=0;align=left;spacingLeft=6;fontStyle=5;overflow=hidden;rounded=1;shadow=0;sketch=0;" parent="HRTCJ7Vf4itoT8xbrcnB-1" vertex="1">
                    <mxGeometry x="30" width="180" height="30" as="geometry">
                        <mxRectangle width="180" height="30" as="alternateBounds"/>
                    </mxGeometry>
                </mxCell>
                <mxCell id="My0P_ixGfxA8OZIb_mW6-0" value="" style="shape=tableRow;horizontal=0;startSize=0;swimlaneHead=0;swimlaneBody=0;fillColor=none;collapsible=0;dropTarget=0;points=[[0,0.5],[1,0.5]];portConstraint=eastwest;top=0;left=0;right=0;bottom=0;rounded=1;shadow=0;sketch=0;" parent="HRTCJ7Vf4itoT8xbrcnB-0" vertex="1">
                    <mxGeometry y="60" width="210" height="30" as="geometry"/>
                </mxCell>
                <mxCell id="My0P_ixGfxA8OZIb_mW6-1" value="FK" style="shape=partialRectangle;connectable=0;fillColor=none;top=0;left=0;bottom=0;right=0;fontStyle=0;overflow=hidden;rounded=1;shadow=0;sketch=0;" parent="My0P_ixGfxA8OZIb_mW6-0" vertex="1">
                    <mxGeometry width="30" height="30" as="geometry">
                        <mxRectangle width="30" height="30" as="alternateBounds"/>
                    </mxGeometry>
                </mxCell>
                <mxCell id="My0P_ixGfxA8OZIb_mW6-2" value="autor_codigo" style="shape=partialRectangle;connectable=0;fillColor=none;top=0;left=0;bottom=0;right=0;align=left;spacingLeft=6;fontStyle=0;overflow=hidden;rounded=1;shadow=0;sketch=0;" parent="My0P_ixGfxA8OZIb_mW6-0" vertex="1">
                    <mxGeometry x="30" width="180" height="30" as="geometry">
                        <mxRectangle width="180" height="30" as="alternateBounds"/>
                    </mxGeometry>
                </mxCell>
                <mxCell id="My0P_ixGfxA8OZIb_mW6-3" value="" style="shape=tableRow;horizontal=0;startSize=0;swimlaneHead=0;swimlaneBody=0;fillColor=none;collapsible=0;dropTarget=0;points=[[0,0.5],[1,0.5]];portConstraint=eastwest;top=0;left=0;right=0;bottom=0;rounded=1;shadow=0;sketch=0;" parent="HRTCJ7Vf4itoT8xbrcnB-0" vertex="1">
                    <mxGeometry y="90" width="210" height="30" as="geometry"/>
                </mxCell>
                <mxCell id="My0P_ixGfxA8OZIb_mW6-4" value="FK" style="shape=partialRectangle;connectable=0;fillColor=none;top=0;left=0;bottom=0;right=0;fontStyle=0;overflow=hidden;rounded=1;shadow=0;sketch=0;" parent="My0P_ixGfxA8OZIb_mW6-3" vertex="1">
                    <mxGeometry width="30" height="30" as="geometry">
                        <mxRectangle width="30" height="30" as="alternateBounds"/>
                    </mxGeometry>
                </mxCell>
                <mxCell id="My0P_ixGfxA8OZIb_mW6-5" value="libro_isbn" style="shape=partialRectangle;connectable=0;fillColor=none;top=0;left=0;bottom=0;right=0;align=left;spacingLeft=6;fontStyle=0;overflow=hidden;rounded=1;shadow=0;sketch=0;" parent="My0P_ixGfxA8OZIb_mW6-3" vertex="1">
                    <mxGeometry x="30" width="180" height="30" as="geometry">
                        <mxRectangle width="180" height="30" as="alternateBounds"/>
                    </mxGeometry>
                </mxCell>
                <mxCell id="HRTCJ7Vf4itoT8xbrcnB-4" value="" style="shape=tableRow;horizontal=0;startSize=0;swimlaneHead=0;swimlaneBody=0;fillColor=none;collapsible=0;dropTarget=0;points=[[0,0.5],[1,0.5]];portConstraint=eastwest;top=0;left=0;right=0;bottom=0;rounded=1;shadow=0;sketch=0;" parent="HRTCJ7Vf4itoT8xbrcnB-0" vertex="1">
                    <mxGeometry y="120" width="210" height="30" as="geometry"/>
                </mxCell>
                <mxCell id="HRTCJ7Vf4itoT8xbrcnB-5" value="" style="shape=partialRectangle;connectable=0;fillColor=none;top=0;left=0;bottom=0;right=0;editable=1;overflow=hidden;rounded=1;shadow=0;sketch=0;" parent="HRTCJ7Vf4itoT8xbrcnB-4" vertex="1">
                    <mxGeometry width="30" height="30" as="geometry">
                        <mxRectangle width="30" height="30" as="alternateBounds"/>
                    </mxGeometry>
                </mxCell>
                <mxCell id="HRTCJ7Vf4itoT8xbrcnB-6" value="tipo_autor" style="shape=partialRectangle;connectable=0;fillColor=none;top=0;left=0;bottom=0;right=0;align=left;spacingLeft=6;overflow=hidden;rounded=1;shadow=0;sketch=0;" parent="HRTCJ7Vf4itoT8xbrcnB-4" vertex="1">
                    <mxGeometry x="30" width="180" height="30" as="geometry">
                        <mxRectangle width="180" height="30" as="alternateBounds"/>
                    </mxGeometry>
                </mxCell>
                <mxCell id="My0P_ixGfxA8OZIb_mW6-6" style="rounded=1;sketch=0;orthogonalLoop=1;jettySize=auto;html=1;startArrow=ERmany;startFill=0;endArrow=ERmany;endFill=0;exitX=0.5;exitY=0;exitDx=0;exitDy=0;entryX=0.506;entryY=1.067;entryDx=0;entryDy=0;entryPerimeter=0;" parent="d6sKSX3_hL5fsHFWsNX0-1" source="HRTCJ7Vf4itoT8xbrcnB-0" target="dQqOFQhGZGARgO1g44J2-0" edge="1">
                    <mxGeometry relative="1" as="geometry">
                        <mxPoint x="150" y="230" as="targetPoint"/>
                    </mxGeometry>
                </mxCell>
                <mxCell id="XUzw9KXqxTeidEm9v_Aq-0" value="" style="endArrow=ERmany;html=1;rounded=1;sketch=0;exitX=0.5;exitY=0;exitDx=0;exitDy=0;startArrow=ERmany;startFill=0;endFill=0;entryX=0.5;entryY=1.067;entryDx=0;entryDy=0;entryPerimeter=0;" parent="d6sKSX3_hL5fsHFWsNX0-1" source="Y_Rez4NEPhEp4SPpSqdi-0" target="HRTCJ7Vf4itoT8xbrcnB-4" edge="1">
                    <mxGeometry width="50" height="50" relative="1" as="geometry">
                        <mxPoint x="610" y="570" as="sourcePoint"/>
                        <mxPoint x="170" y="510" as="targetPoint"/>
                    </mxGeometry>
                </mxCell>
            </root>
        </mxGraphModel>
    </diagram>
</mxfile>